#!OML:ASF F:\VICON\USERDATA\INSTALL\rory3\rory3.ASF
:FULLY-SPECIFIED
:DEGREES
55
root 0.33588504624554777 18.261985729220264 28.722290937220976 1.186119215824823 1.3354958545286424 -5.008937407402501
lfemur -31.341440758297168 -2.5354486158704974 -16.725344727581728
ltibia 36.93172774679759
lfoot -3.4141104385506327 -6.066517312222579
ltoes -11.130533711024755
rfemur 11.639713528805679 4.643141455684585 32.768839077979436
rtibia 30.6345977861324
rfoot 15.222684795267924 -0.3312338090057185
rtoes 8.19220545027468
lowerback 10.712111843801873 2.6213658929035955 6.805611109758444
upperback -1.1327648728292796 4.476040874719116 1.3730764926929633
thorax -6.675953559510917 1.9323107884492972 -3.321716534266839
lowerneck -17.67868843425415 -4.2435655437333235 -2.0039621855993075
upperneck 18.47106287636543 -5.70724408578716 2.0106514705787446
head 8.845525679331717 -2.606990261351379 0.21080452788923662
lclavicle -1.7298246916521015e-15 1.0576841565267503e-15
lhumerus -54.900871071613594 0.20758602458538533 89.49659781879001
lradius 64.46531929871345
lwrist 19.43090765587963
lhand -26.03702150154158 14.565107063385923
lfingers 7.125019999999999
lthumb 0.5098785916116084 44.54159978982038
rclavicle -1.7298246916521015e-15 1.0576841565267503e-15
rhumerus -32.07780422721343 0.7450196531758548 -85.65036085324641
rradius 72.34784359007814
rwrist -2.7505387759338604
rhand -15.94902576774442 30.552118305607344
rfingers 7.125019999999999
rthumb 10.248900929934107 2.469145951172331
56
root 0.3582718182423725 18.32299049005157 30.033058970832286 1.1631205587469569 1.4840810247483225 -5.036704773450282
lfemur -29.602906387082033 -2.475832328490193 -17.32120327470808
ltibia 30.603534155205303
lfoot -2.1804173011995185 -7.189454053585077
ltoes -11.266693299799018
rfemur 12.25389527009245 5.674072690280292 33.033597848186375
rtibia 32.58051467593353
rfoot 17.545558878669862 -0.5219932042114301
rtoes 11.525089469308567
lowerback 10.443171328011314 2.7997199313951993 6.943997584289025
upperback -1.2375718698862792 4.688695937363163 1.2440343706552837
thorax -6.5537001016554255 2.034356005549026 -3.539398425897705
lowerneck -17.562528654802335 -4.272772675088929 -2.106685874619798
upperneck 18.80324399073629 -5.75489755362473 2.126442851847417
head 8.96366108619664 -2.6233424197112716 0.25653728576852
lclavicle -1.5861044038456234e-15 1.1584561945245076e-15
lhumerus -55.69402574155153 1.4129227838457021 88.89356372098835
lradius 65.7277056320725
lwrist 19.060898882752763
lhand -26.118058902458383 13.845827449600627
lfingers 7.125019999999999
lthumb 0.4316021459957197 43.822135171061376
rclavicle -1.5861044038456234e-15 1.1584561945245076e-15
rhumerus -32.32789151188352 1.1346403152273732 -85.80038781836153
rradius 72.00462949200613
rwrist -2.6855478148348455
rhand -15.86152750918103 30.39142025796654
rfingers 7.125019999999999
rthumb 10.333457994007937 2.469327249069436
57
root 0.03800403545431627 18.545499988819593 31.19643248690575 4.15843929420803 3.3221016597603668 -4.931556764330276
lfemur -34.39549698509484 -1.3349438475850182 -18.46260171779635
ltibia 33.625910858220344
lfoot 2.1322366141760623 -10.59198507330462
ltoes -15.732170575232605
rfemur 14.726284493340682 5.665431912718258 34.67407470243362
rtibia 45.517712256227114
rfoot 28.611496255139528 -0.8003808099803109
rtoes 17.220392185866473
lowerback 12.276012042379161 2.968995062572197 6.794453028891119
upperback -2.4035774029539048 5.114715053134606 1.201622712284515
thorax -8.676714782277484 2.127236848193047 -4.2196714296908855
lowerneck -18.965071247154622 -5.166485081976571 -2.1906547060377233
upperneck 15.76570146950976 -7.076824147692669 3.1646823424269948
head 8.171721105986633 -3.165721378368183 0.5386883272800295
lclavicle -8.335998698054748e-16 2.433028607384226e-15
lhumerus -72.82482148126692 -4.443646770072526 95.31331937793857
lradius 108.56344712593392
lwrist 33.110284345973234
lhand -24.910017599654847 2.1774848435785774
lfingers 7.12502
lthumb 1.5983301519756397 32.14578455987193
rclavicle -8.335998698054748e-16 2.433028607384226e-15
rhumerus -40.5149984718347 14.683685661863496 -94.58385065819981
rradius 115.00272220598994
rwrist -10.618023976810715
rhand -15.276223871794619 39.14222110212608
rfingers 7.12502
rthumb 10.89835528103134 10.815962400242737
58
root 0.029850801208113203 18.528688635277483 32.05564580759116 3.814570584980357 3.4603842323471508 -5.0785179283411175
lfemur -32.79159706552633 -0.8647159434641805 -19.020663388790265
ltibia 29.497772056061628
lfoot 2.9791627595536605 -11.044482391605179
ltoes -15.937732611812955
rfemur 13.798736987887327 6.1697783337831495 34.834171708300715
rtibia 50.02644280979115
rfoot 27.343973978165742 -2.4496625991715977
rtoes 17.860875283473057
lowerback 12.382082088624102 3.0120012749292475 6.7406791232452505
upperback -2.3310957158814682 5.1713234178691145 1.1866723141425601
thorax -8.668611128883681 2.1583485964920044 -4.25415816353476
lowerneck -18.993427470626813 -5.154612409403202 -2.28716255743341
upperneck 15.784132632056693 -7.052517831203117 3.2527964943265673
head 8.196840982742772 -3.1492211201402522 0.5910067265487902
lclavicle -1.0250437807809653e-15 2.2941540307796743e-15
lhumerus -73.05434724493959 -3.91931850298149 95.13059372230904
lradius 110.08659808505915
lwrist 32.541730867896376
lhand -24.666105845931313 1.5036340524708025
lfingers 7.12502
lthumb 1.833897643092088 31.4671912880916
rclavicle -1.0250437807809653e-15 2.2941540307796743e-15
rhumerus -40.86039754345149 14.93638163644683 -94.85786282243878
rradius 114.1094279652994
rwrist -10.462325280815442
rhand -15.648730332176 39.0642607121877
rfingers 7.12502
rthumb 10.53922583230971 10.580641952486591
59
root 0.00471851727715511 18.454981330411933 32.61762088683786 3.2852240378264876 3.6523840975241155 -5.185838700873951
lfemur -31.419929191932177 -0.4454676015020351 -19.661751587832565
ltibia 26.800422554796143
lfoot 3.0106744501151925 -11.513574462755372
ltoes -15.462520351538753
rfemur 12.146125695368642 6.03469773677373 34.655891047991815
rtibia 55.056687543269035
rfoot 25.21151377603063 -4.5301941099640874
rtoes 17.004774715894175
lowerback 12.648008356077977 2.9705334375730637 6.48816068712994
upperback -2.16313171907328 5.097964463573146 1.1821337483175147
thorax -8.712756385750575 2.136456984542223 -4.175279443523887
lowerneck -19.045009668158787 -5.145536509363944 -2.384333931677705
upperneck 15.62052182386291 -7.030664502820249 3.332424957373801
head 8.166665511968946 -3.13415190412095 0.645481518519818
lclavicle -1.4811673504531287e-15 1.9632838877124903e-15
lhumerus -72.91336756611908 -3.7676971780503674 95.2057146832172
lradius 111.24250409380181
lwrist 31.904462170018668
lhand -24.503197887426687 1.0873302206098596
lfingers 7.12502
lthumb 1.9912485815499754 31.049850287891395
rclavicle -1.4811673504531287e-15 1.9632838877124903e-15
rhumerus -41.30008643079921 14.954189562730642 -95.24629383616237
rradius 112.98720915926455
rwrist -10.270726864210436
rhand -16.084890096457766 38.970745340332876
rfingers 7.12502
rthumb 10.118542930755993 10.290042332781383
